<mxfile host="app.diagrams.net" agent="Mozilla/5.0 (Windows NT 10.0; Win64; x64) AppleWebKit/537.36 (KHTML, like Gecko) Chrome/133.0.0.0 Safari/537.36" version="26.0.16">
  <diagram name="Page-1" id="58cdce13-f638-feb5-8d6f-7d28b1aa9fa0">
    <mxGraphModel dx="1434" dy="780" grid="1" gridSize="10" guides="1" tooltips="1" connect="1" arrows="1" fold="1" page="1" pageScale="1" pageWidth="1100" pageHeight="850" background="none" math="0" shadow="0">
      <root>
        <mxCell id="0" />
        <mxCell id="1" parent="0" />
        <mxCell id="382b91b5511bd0f7-1" value="" style="ellipse;html=1;shape=startState;fillColor=#000000;strokeColor=#ff0000;rounded=1;shadow=0;comic=0;labelBackgroundColor=none;fontFamily=Verdana;fontSize=12;fontColor=#000000;align=center;direction=south;" parent="1" vertex="1">
          <mxGeometry x="80" y="220" width="30" height="30" as="geometry" />
        </mxCell>
        <mxCell id="2a3bc250acf0617d-9" style="edgeStyle=orthogonalEdgeStyle;html=1;labelBackgroundColor=none;endArrow=open;endSize=8;strokeColor=#ff0000;fontFamily=Verdana;fontSize=12;align=left;entryX=0;entryY=0.5;entryDx=0;entryDy=0;" parent="1" source="382b91b5511bd0f7-1" target="tyk01a-CXnwHllyl0mSq-21" edge="1">
          <mxGeometry relative="1" as="geometry">
            <mxPoint x="400" y="235" as="targetPoint" />
          </mxGeometry>
        </mxCell>
        <mxCell id="tqP60oplQl6eytwoJ_Mu-22" value="" style="ellipse;html=1;shape=endState;fillColor=#000000;strokeColor=#ff0000;" parent="1" vertex="1">
          <mxGeometry x="565" y="130" width="30" height="30" as="geometry" />
        </mxCell>
        <mxCell id="tqP60oplQl6eytwoJ_Mu-26" value="" style="edgeStyle=orthogonalEdgeStyle;html=1;verticalAlign=bottom;endArrow=open;endSize=8;strokeColor=#ff0000;rounded=0;entryX=0.5;entryY=1;entryDx=0;entryDy=0;exitX=0.5;exitY=0;exitDx=0;exitDy=0;" parent="1" source="tyk01a-CXnwHllyl0mSq-20" target="tqP60oplQl6eytwoJ_Mu-22" edge="1">
          <mxGeometry relative="1" as="geometry">
            <mxPoint x="570" y="170" as="targetPoint" />
            <mxPoint x="580" y="210" as="sourcePoint" />
            <Array as="points" />
          </mxGeometry>
        </mxCell>
        <mxCell id="tqP60oplQl6eytwoJ_Mu-33" value="" style="edgeStyle=orthogonalEdgeStyle;html=1;verticalAlign=bottom;endArrow=open;endSize=8;strokeColor=#ff0000;rounded=0;entryX=0.5;entryY=0;entryDx=0;entryDy=0;exitX=0.5;exitY=1;exitDx=0;exitDy=0;" parent="1" source="tyk01a-CXnwHllyl0mSq-18" target="tyk01a-CXnwHllyl0mSq-2" edge="1">
          <mxGeometry relative="1" as="geometry">
            <mxPoint x="570" y="360" as="targetPoint" />
            <mxPoint x="580" y="440" as="sourcePoint" />
          </mxGeometry>
        </mxCell>
        <mxCell id="tqP60oplQl6eytwoJ_Mu-63" value="" style="edgeStyle=orthogonalEdgeStyle;html=1;verticalAlign=bottom;endArrow=open;endSize=8;strokeColor=#ff0000;rounded=0;entryX=1;entryY=0.5;entryDx=0;entryDy=0;exitX=0.5;exitY=1;exitDx=0;exitDy=0;" parent="1" source="tyk01a-CXnwHllyl0mSq-3" target="tqP60oplQl6eytwoJ_Mu-22" edge="1">
          <mxGeometry relative="1" as="geometry">
            <mxPoint x="819" y="470" as="targetPoint" />
            <mxPoint x="500" y="440" as="sourcePoint" />
            <Array as="points">
              <mxPoint x="580" y="730" />
              <mxPoint x="810" y="730" />
              <mxPoint x="810" y="145" />
            </Array>
          </mxGeometry>
        </mxCell>
        <mxCell id="tqP60oplQl6eytwoJ_Mu-64" value="endTurn()" style="text;html=1;align=center;verticalAlign=middle;resizable=0;points=[];autosize=1;strokeColor=none;fillColor=none;" parent="1" vertex="1">
          <mxGeometry x="650" y="690" width="80" height="30" as="geometry" />
        </mxCell>
        <mxCell id="tqP60oplQl6eytwoJ_Mu-75" value="onTurnBegin(e: Player )" style="text;html=1;align=center;verticalAlign=middle;resizable=0;points=[];autosize=1;strokeColor=none;fillColor=none;" parent="1" vertex="1">
          <mxGeometry x="120" y="200" width="150" height="30" as="geometry" />
        </mxCell>
        <mxCell id="tyk01a-CXnwHllyl0mSq-2" value="stun" style="swimlane;fontStyle=1;align=center;verticalAlign=middle;childLayout=stackLayout;horizontal=1;startSize=30;horizontalStack=0;resizeParent=0;resizeLast=1;container=0;fontColor=#000000;collapsible=0;rounded=1;arcSize=30;strokeColor=#ff0000;fillColor=#ffffc0;swimlaneFillColor=#ffffc0;dropTarget=0;" vertex="1" parent="1">
          <mxGeometry x="500" y="580" width="160" height="60" as="geometry" />
        </mxCell>
        <mxCell id="tyk01a-CXnwHllyl0mSq-3" value="set insect to be stunned" style="text;html=1;strokeColor=none;fillColor=none;align=center;verticalAlign=middle;spacingLeft=4;spacingRight=4;whiteSpace=wrap;overflow=hidden;rotatable=0;fontColor=#000000;" vertex="1" parent="tyk01a-CXnwHllyl0mSq-2">
          <mxGeometry y="30" width="160" height="30" as="geometry" />
        </mxCell>
        <mxCell id="tyk01a-CXnwHllyl0mSq-7" value="eatSpore() [spore exits, has&#39;nt eaten spore] / getEffect()" style="text;html=1;align=center;verticalAlign=middle;resizable=0;points=[];autosize=1;strokeColor=none;fillColor=none;" vertex="1" parent="1">
          <mxGeometry x="260" y="330" width="320" height="30" as="geometry" />
        </mxCell>
        <mxCell id="tyk01a-CXnwHllyl0mSq-14" value="" style="edgeStyle=orthogonalEdgeStyle;html=1;verticalAlign=bottom;endArrow=open;endSize=8;strokeColor=#ff0000;rounded=0;entryX=0;entryY=0.5;entryDx=0;entryDy=0;exitX=1;exitY=0.5;exitDx=0;exitDy=0;" edge="1" source="tyk01a-CXnwHllyl0mSq-21" parent="1" target="tyk01a-CXnwHllyl0mSq-20">
          <mxGeometry relative="1" as="geometry">
            <mxPoint x="555" y="235" as="targetPoint" />
            <mxPoint x="520" y="235" as="sourcePoint" />
          </mxGeometry>
        </mxCell>
        <mxCell id="tyk01a-CXnwHllyl0mSq-17" value="isStunned()" style="text;html=1;align=center;verticalAlign=middle;resizable=0;points=[];autosize=1;strokeColor=none;fillColor=none;" vertex="1" parent="1">
          <mxGeometry x="335" y="260" width="80" height="30" as="geometry" />
        </mxCell>
        <mxCell id="tyk01a-CXnwHllyl0mSq-18" value="HasEaten" style="rounded=1;whiteSpace=wrap;html=1;arcSize=40;fontColor=#000000;fillColor=#ffffc0;strokeColor=#ff0000;" vertex="1" parent="1">
          <mxGeometry x="520" y="405" width="120" height="40" as="geometry" />
        </mxCell>
        <mxCell id="tyk01a-CXnwHllyl0mSq-19" value="" style="edgeStyle=orthogonalEdgeStyle;html=1;verticalAlign=bottom;endArrow=open;endSize=8;strokeColor=#ff0000;rounded=0;exitX=0.5;exitY=1;exitDx=0;exitDy=0;entryX=0.5;entryY=0;entryDx=0;entryDy=0;" edge="1" source="tyk01a-CXnwHllyl0mSq-20" parent="1" target="tyk01a-CXnwHllyl0mSq-18">
          <mxGeometry relative="1" as="geometry">
            <mxPoint x="600" y="440" as="targetPoint" />
            <mxPoint x="580" y="260" as="sourcePoint" />
          </mxGeometry>
        </mxCell>
        <mxCell id="tyk01a-CXnwHllyl0mSq-20" value="HasTurn" style="rounded=1;whiteSpace=wrap;html=1;arcSize=40;fontColor=#000000;fillColor=#ffffc0;strokeColor=#ff0000;" vertex="1" parent="1">
          <mxGeometry x="520" y="215" width="120" height="40" as="geometry" />
        </mxCell>
        <mxCell id="tyk01a-CXnwHllyl0mSq-21" value="" style="rhombus;whiteSpace=wrap;html=1;" vertex="1" parent="1">
          <mxGeometry x="350" y="210" width="50" height="50" as="geometry" />
        </mxCell>
        <mxCell id="tyk01a-CXnwHllyl0mSq-23" value="" style="edgeStyle=orthogonalEdgeStyle;html=1;verticalAlign=bottom;endArrow=open;endSize=8;strokeColor=#ff0000;rounded=0;entryX=0;entryY=0.5;entryDx=0;entryDy=0;exitX=0.5;exitY=0;exitDx=0;exitDy=0;" edge="1" source="tyk01a-CXnwHllyl0mSq-21" parent="1" target="tqP60oplQl6eytwoJ_Mu-22">
          <mxGeometry relative="1" as="geometry">
            <mxPoint x="480" y="340" as="targetPoint" />
            <mxPoint x="480" y="280" as="sourcePoint" />
          </mxGeometry>
        </mxCell>
        <mxCell id="tyk01a-CXnwHllyl0mSq-24" value="endTurn() [true]" style="text;html=1;align=center;verticalAlign=middle;resizable=0;points=[];autosize=1;strokeColor=none;fillColor=none;" vertex="1" parent="1">
          <mxGeometry x="400" y="108" width="110" height="30" as="geometry" />
        </mxCell>
        <mxCell id="tyk01a-CXnwHllyl0mSq-25" value="endTurn()" style="text;html=1;align=center;verticalAlign=middle;resizable=0;points=[];autosize=1;strokeColor=none;fillColor=none;" vertex="1" parent="1">
          <mxGeometry x="580" y="170" width="80" height="30" as="geometry" />
        </mxCell>
        <mxCell id="tyk01a-CXnwHllyl0mSq-26" value="[effect=stun]" style="text;html=1;align=center;verticalAlign=middle;resizable=0;points=[];autosize=1;strokeColor=none;fillColor=none;" vertex="1" parent="1">
          <mxGeometry x="490" y="500" width="90" height="30" as="geometry" />
        </mxCell>
        <mxCell id="tyk01a-CXnwHllyl0mSq-27" value="[false]" style="text;html=1;align=center;verticalAlign=middle;resizable=0;points=[];autosize=1;strokeColor=none;fillColor=none;" vertex="1" parent="1">
          <mxGeometry x="430" y="200" width="60" height="30" as="geometry" />
        </mxCell>
      </root>
    </mxGraphModel>
  </diagram>
</mxfile>
